<svg width="65" height="18" viewBox="0 0 65 18" fill="none" xmlns="http://www.w3.org/2000/svg">
<path d="M58.4747 17.7619V10.8089L55.2017 0.216797H58.4126L60.2148 6.39008L61.8928 0.216797H65.0001L61.7685 10.8089V17.7619H58.4747Z" fill="white"/>
<path d="M47.1954 17.7619V0.216797H54.508V2.68611H50.6135V7.34315H53.6172V9.83413H50.6135V15.3359H54.5494V17.7619H47.1954Z" fill="white"/>
<path d="M35.7655 17.7619V0.216797H39.1836V7.62474L42.208 0.216797H45.5225L42.3737 8.10127L45.7504 17.7619H42.3116L39.7222 9.89911L39.1836 10.8955V17.7619H35.7655Z" fill="white"/>
<path d="M28.9765 18C27.7335 18 26.7461 17.7545 26.0141 17.2635C25.296 16.7726 24.7919 16.0939 24.5019 15.2274C24.2119 14.3466 24.0669 13.3285 24.0669 12.1733V5.87004C24.0669 4.65704 24.2119 3.61733 24.5019 2.7509C24.7919 1.87004 25.296 1.19134 26.0141 0.714801C26.7461 0.238267 27.7335 0 28.9765 0C30.178 0 31.1171 0.209387 31.7938 0.62816C32.4843 1.04693 32.9676 1.63899 33.2438 2.40433C33.5339 3.16968 33.6789 4.05776 33.6789 5.06859V6.54152H30.3644V4.89531C30.3644 4.49097 30.3437 4.11552 30.3022 3.76895C30.2608 3.40794 30.1434 3.11913 29.9501 2.90253C29.7706 2.67148 29.4529 2.55596 28.9972 2.55596C28.5414 2.55596 28.21 2.67148 28.0028 2.90253C27.7957 3.13357 27.6645 3.43682 27.6092 3.81227C27.554 4.17329 27.5264 4.57762 27.5264 5.02527V12.9964C27.5264 13.4874 27.5609 13.9206 27.63 14.296C27.7128 14.657 27.8578 14.9386 28.065 15.1408C28.2859 15.3285 28.5967 15.4224 28.9972 15.4224C29.4391 15.4224 29.7498 15.3141 29.9294 15.0975C30.1227 14.8664 30.2401 14.5632 30.2815 14.1877C30.3368 13.8123 30.3644 13.4152 30.3644 12.9964V11.2852H33.6789V12.7365C33.6789 13.7617 33.5408 14.6715 33.2646 15.4657C32.9884 16.2455 32.5119 16.8664 31.8352 17.3285C31.1585 17.7762 30.2056 18 28.9765 18Z" fill="white"/>
<path d="M17.0615 18C15.8324 18 14.8588 17.769 14.1406 17.3069C13.4225 16.8448 12.9046 16.1877 12.587 15.3357C12.2831 14.4693 12.1312 13.4368 12.1312 12.2383V5.69675C12.1312 4.4982 12.2831 3.47292 12.587 2.62094C12.9046 1.76895 13.4225 1.11913 14.1406 0.67148C14.8588 0.223827 15.8324 0 17.0615 0C18.3044 0 19.285 0.231047 20.0031 0.693141C20.735 1.14079 21.2529 1.79061 21.5568 2.6426C21.8744 3.48014 22.0332 4.4982 22.0332 5.69675V12.2383C22.0332 13.4368 21.8744 14.4693 21.5568 15.3357C21.2529 16.1877 20.735 16.8448 20.0031 17.3069C19.285 17.769 18.3044 18 17.0615 18ZM17.0615 15.4224C17.5034 15.4224 17.828 15.3213 18.0351 15.1191C18.2423 14.9025 18.3804 14.6209 18.4494 14.2744C18.5185 13.9134 18.553 13.5307 18.553 13.1264V4.83033C18.553 4.42599 18.5185 4.05054 18.4494 3.70397C18.3804 3.3574 18.2423 3.08303 18.0351 2.88087C17.828 2.66426 17.5034 2.55596 17.0615 2.55596C16.6472 2.55596 16.3365 2.66426 16.1293 2.88087C15.9222 3.08303 15.7841 3.3574 15.715 3.70397C15.6459 4.05054 15.6114 4.42599 15.6114 4.83033V13.1264C15.6114 13.5307 15.639 13.9134 15.6943 14.2744C15.7633 14.6209 15.9014 14.9025 16.1086 15.1191C16.3158 15.3213 16.6334 15.4224 17.0615 15.4224Z" fill="white"/>
<path d="M0 17.7619V0.216797H3.41805V7.42979H6.38036V0.216797H9.79841V17.7619H6.38036V9.98575H3.41805V17.7619H0Z" fill="white"/>
</svg>
