<svg width="30" height="30" viewBox="0 0 30 30" fill="none" xmlns="http://www.w3.org/2000/svg">
<path d="M16.7624 15L24.6374 7.1375C24.8728 6.90212 25.005 6.58288 25.005 6.25C25.005 5.91712 24.8728 5.59788 24.6374 5.3625C24.402 5.12712 24.0828 4.99488 23.7499 4.99488C23.417 4.99488 23.0978 5.12712 22.8624 5.3625L14.9999 13.2375L7.13742 5.3625C6.90204 5.12712 6.5828 4.99488 6.24992 4.99488C5.91705 4.99488 5.5978 5.12712 5.36242 5.3625C5.12704 5.59788 4.99481 5.91712 4.99481 6.25C4.99481 6.58288 5.12704 6.90212 5.36242 7.1375L13.2374 15L5.36242 22.8625C5.24526 22.9787 5.15227 23.117 5.08881 23.2693C5.02535 23.4216 4.99268 23.585 4.99268 23.75C4.99268 23.915 5.02535 24.0784 5.08881 24.2307C5.15227 24.383 5.24526 24.5213 5.36242 24.6375C5.47863 24.7547 5.61688 24.8477 5.7692 24.9111C5.92153 24.9746 6.08491 25.0072 6.24992 25.0072C6.41494 25.0072 6.57832 24.9746 6.73064 24.9111C6.88297 24.8477 7.02122 24.7547 7.13742 24.6375L14.9999 16.7625L22.8624 24.6375C22.9786 24.7547 23.1169 24.8477 23.2692 24.9111C23.4215 24.9746 23.5849 25.0072 23.7499 25.0072C23.9149 25.0072 24.0783 24.9746 24.2306 24.9111C24.383 24.8477 24.5212 24.7547 24.6374 24.6375C24.7546 24.5213 24.8476 24.383 24.911 24.2307C24.9745 24.0784 25.0072 23.915 25.0072 23.75C25.0072 23.585 24.9745 23.4216 24.911 23.2693C24.8476 23.117 24.7546 22.9787 24.6374 22.8625L16.7624 15Z" fill="white"/>
</svg>
