<svg width="20" height="20" viewBox="0 0 20 20" fill="none" xmlns="http://www.w3.org/2000/svg">
<path d="M12.5609 1.6665H7.44835C2.77669 1.6665 1.66669 2.77734 1.66669 7.439V12.5523C1.66669 17.2223 2.76919 18.3332 7.43919 18.3332H12.5525C17.2225 18.3332 18.3334 17.2307 18.3334 12.5607V7.44817C18.3334 2.7765 17.2309 1.6665 12.5609 1.6665ZM15.1217 13.5582H13.9059C13.4459 13.5582 13.3075 13.1857 12.4825 12.3607C11.7625 11.6665 11.4584 11.5798 11.2759 11.5798C11.0242 11.5798 10.955 11.649 10.955 11.9965V13.0898C10.955 13.3857 10.8592 13.559 10.0867 13.559C9.33711 13.5081 8.6103 13.2801 7.96594 12.8937C7.32159 12.5074 6.77807 11.9737 6.38002 11.3365C5.43531 10.1619 4.77838 8.78271 4.46169 7.309C4.46169 7.1265 4.53085 6.9615 4.87835 6.9615H6.09419C6.40669 6.9615 6.51919 7.10067 6.64085 7.4215C7.23085 9.15817 8.23752 10.6682 8.64585 10.6682C8.80252 10.6682 8.87085 10.599 8.87085 10.2082V8.41984C8.81919 7.604 8.38585 7.53484 8.38585 7.23984C8.39142 7.16203 8.42708 7.08945 8.48526 7.03749C8.54344 6.98553 8.61958 6.95827 8.69752 6.9615H10.6075C10.8684 6.9615 10.955 7.0915 10.955 7.404V9.81734C10.955 10.0782 11.0675 10.1648 11.1459 10.1648C11.3025 10.1648 11.4234 10.0782 11.71 9.7915C12.3257 9.04062 12.8288 8.20406 13.2034 7.30817C13.2419 7.20071 13.3144 7.10874 13.4099 7.04619C13.5053 6.98363 13.6186 6.9539 13.7325 6.9615H14.9484C15.3125 6.9615 15.39 7.144 15.3125 7.404C14.8705 8.39438 14.3234 9.33448 13.6809 10.2082C13.55 10.4082 13.4975 10.5123 13.6809 10.7465C13.8017 10.929 14.2275 11.2848 14.5142 11.6232C14.9306 12.0388 15.2765 12.5196 15.5384 13.0465C15.6425 13.3848 15.4684 13.5582 15.1217 13.5582Z" fill="white"/>
</svg>
